<svg width="150" height="150" viewBox="0 0 150 150" fill="none" xmlns="http://www.w3.org/2000/svg">
<g clip-path="url(#clip0)">
<path d="M146.631 124.072H139.3C139.865 122.972 140.186 121.727 140.186 120.407L140.183 60.7896C140.183 59.5758 139.199 58.5923 137.986 58.5923C136.772 58.5923 135.789 59.5761 135.789 60.7896L135.791 120.407C135.791 122.427 134.148 124.069 132.129 124.069L17.874 124.072C15.8546 124.072 14.2119 122.43 14.2119 120.41L14.209 44.2413C14.209 42.2218 15.8517 40.5792 17.8711 40.5792L76.1745 40.5765C75.4189 41.9101 75.3062 43.5308 75.8997 44.9711L68.1114 44.9714C68.107 44.9714 68.1026 44.9708 68.0982 44.9708H64.1212C64.115 44.9708 64.1092 44.9714 64.1033 44.9714L20.8008 44.9737C19.587 44.9737 18.6035 45.9575 18.6035 47.171L18.6056 93.5749C18.6056 94.7886 19.5894 95.7721 20.8028 95.7721C22.0166 95.7721 23.0001 94.7883 23.0001 93.5749L22.998 49.3682L59.0827 49.3665C58.783 50.5638 58.4476 52.0287 58.2885 53.1578C58.2624 53.3438 58.1449 53.5132 57.9741 53.6116L54.2997 55.728C54.1286 55.827 53.9221 55.8446 53.7463 55.7734C52.4985 55.2704 50.7149 54.7425 49.4379 54.3883C47.2245 53.7742 44.8734 54.7331 43.7235 56.72L41.7378 60.1512C40.5844 62.144 40.9292 64.6618 42.576 66.274C43.5196 67.1974 44.8664 68.4721 45.927 69.2983C46.074 69.4126 46.1616 69.5977 46.1616 69.7937V74.0212C46.1616 74.2172 46.0737 74.403 45.927 74.5173C44.8664 75.3431 43.5193 76.6178 42.576 77.5413C40.9292 79.1535 40.5844 81.6715 41.7378 83.664L43.7235 87.0953C44.8734 89.0822 47.2233 90.0422 49.4385 89.4267C50.7149 89.0728 52.4985 88.5449 53.7472 88.0416C53.9212 87.9713 54.128 87.9882 54.2994 88.087L57.9741 90.2034C58.1449 90.3018 58.2624 90.4714 58.2885 90.6572C58.476 91.987 58.9081 93.7858 59.2377 95.0599C59.8137 97.2879 61.8217 98.8442 64.1209 98.8442H68.0979C70.3972 98.8442 72.4052 97.2879 72.9809 95.0602C73.3107 93.7855 73.7429 91.987 73.9304 90.6572C73.9567 90.4714 74.0742 90.3018 74.2447 90.2034L77.9197 88.087C78.0908 87.9882 78.2971 87.9709 78.4726 88.0418C79.7203 88.5449 81.5039 89.0728 82.781 89.427C84.994 90.0402 87.3454 89.0822 88.4953 87.0953L90.4811 83.664C91.6345 81.6712 91.2896 79.1535 89.6429 77.5413C88.6992 76.6178 87.3524 75.3431 86.2919 74.5175C86.1448 74.4027 86.0569 74.2172 86.0569 74.0212V69.7937C86.0569 69.5977 86.1445 69.4123 86.2916 69.298C87.3521 68.4721 88.6992 67.1974 89.6426 66.274C91.2894 64.6618 91.6342 62.1437 90.4808 60.1512L88.495 56.72C87.3451 54.7331 84.9955 53.7736 82.7801 54.3885C81.5036 54.7424 79.72 55.2704 78.4714 55.7737C78.2974 55.8434 78.0905 55.8267 77.9191 55.7283L74.2441 53.6113C74.0736 53.5131 73.9562 53.3438 73.9301 53.1581C73.7707 52.0287 73.4352 50.5633 73.1358 49.3659L78.4063 49.3656C79.6195 51.109 81.8168 51.9188 83.8948 51.3414C85.1719 50.9872 86.9561 50.4592 88.2035 49.9562C88.3775 49.8862 88.5844 49.9029 88.7558 50.0016L92.4305 52.118C92.6013 52.2165 92.7188 52.3861 92.7448 52.5718C92.9326 53.9016 93.3644 55.7005 93.694 56.9746C94.27 59.2026 96.278 60.7589 98.5772 60.7589H102.554C104.854 60.7589 106.862 59.2026 107.437 56.9749C107.767 55.7002 108.2 53.9016 108.387 52.5718C108.413 52.3861 108.531 52.2165 108.701 52.118L112.376 50.0016C112.547 49.9029 112.754 49.8856 112.929 49.9565C114.177 50.4595 115.96 50.9875 117.237 51.3417C119.314 51.9173 121.512 51.109 122.725 49.3656H126.998L127.001 115.281L23.001 115.283L23.0004 103.059C23.0004 101.845 22.0166 100.861 20.8031 100.861C19.5894 100.861 18.6059 101.845 18.6059 103.059L18.6064 117.481C18.6064 118.694 19.5902 119.678 20.8037 119.678L129.199 119.675C129.782 119.675 130.341 119.443 130.753 119.031C131.165 118.619 131.396 118.061 131.396 117.478L131.394 47.168C131.394 45.9543 130.41 44.9708 129.196 44.9708H125.233C125.826 43.5305 125.713 41.9098 124.958 40.5762H132.126C134.145 40.5762 135.788 42.2189 135.788 44.2383L135.788 51.4691C135.788 52.6829 136.772 53.6664 137.986 53.6664C139.199 53.6664 140.183 52.6826 140.183 51.4691L140.183 44.2383C140.183 39.7961 136.568 36.1817 132.126 36.1817H120.565C120.533 36.1047 120.514 36.0217 120.514 35.9353V31.7078C120.514 31.5118 120.601 31.3266 120.749 31.2121C121.809 30.3856 123.156 29.1112 124.1 28.1881C125.747 26.5758 126.091 24.0578 124.938 22.0653L122.952 18.6341C121.802 16.6471 119.452 15.6871 117.237 16.3026C115.959 16.6571 114.175 17.185 112.929 17.6878C112.755 17.7575 112.548 17.7408 112.376 17.6424L108.701 15.5254C108.531 15.4272 108.413 15.2579 108.387 15.0721C108.2 13.7412 107.767 11.9429 107.438 10.6694C106.862 8.44138 104.854 6.88513 102.555 6.88513H98.5778C96.2786 6.88513 94.2706 8.44138 93.6949 10.6691C93.3653 11.9432 92.9329 13.7412 92.7454 15.0718C92.7193 15.2579 92.6019 15.4272 92.4311 15.5257L88.7566 17.6421C88.5847 17.7414 88.3781 17.7581 88.2041 17.6878C86.9593 17.1856 85.1739 16.6571 83.8948 16.3023C81.6814 15.6885 79.3304 16.6471 78.1805 18.6341L76.1947 22.0653C75.0413 24.0581 75.3861 26.5758 77.0329 28.1881C77.9757 29.1109 79.3222 30.3847 80.3839 31.2124C80.531 31.3266 80.6186 31.5118 80.6186 31.7078V35.9353C80.6186 36.0215 80.5989 36.1047 80.5673 36.1817L17.8711 36.1846C13.4288 36.1846 9.81445 39.799 9.81445 44.2413L9.81738 120.41C9.81738 121.729 10.1379 122.973 10.7016 124.072H3.36914C1.51143 124.072 0 125.584 0 127.441V133.301C0 138.713 4.40273 143.115 9.81445 143.115H112.46C113.674 143.115 114.658 142.132 114.658 140.918C114.658 139.704 113.674 138.721 112.46 138.721H9.81445C6.82588 138.721 4.39453 136.289 4.39453 133.301V128.467H59.3262V129.785C59.3262 132.935 61.8891 135.498 65.0391 135.498H84.9609C88.1109 135.498 90.6738 132.935 90.6738 129.785V128.467H145.605V133.301C145.605 136.289 143.174 138.721 140.186 138.721H121.944C120.73 138.721 119.747 139.704 119.747 140.918C119.747 142.132 120.73 143.115 121.944 143.115H140.186C145.597 143.115 150 138.713 150 133.301V127.441C150 125.584 148.489 124.072 146.631 124.072ZM68.7267 49.8551C69.1523 51.5016 69.455 52.8923 69.5789 53.7715C69.796 55.3102 70.6975 56.6397 72.0516 57.4193L75.7266 59.5363C77.0783 60.3144 78.6779 60.4284 80.1152 59.8489C80.9408 59.5161 82.3046 59.0807 83.9543 58.6228C84.2405 58.5428 84.5437 58.6656 84.6917 58.9211L86.6774 62.3523C86.8242 62.6057 86.7794 62.9271 86.5682 63.1337C85.3491 64.3272 84.2915 65.2855 83.5907 65.8313C82.3652 66.7861 81.6624 68.2301 81.6624 69.7937V74.0212C81.6624 75.5845 82.3649 77.0289 83.5907 77.9837C84.2918 78.5297 85.3491 79.488 86.5682 80.6816C86.7794 80.8881 86.8242 81.2095 86.6774 81.4629L84.6917 84.8942C84.5437 85.1494 84.2394 85.271 83.9549 85.1927C82.3043 84.7348 80.9408 84.2992 80.1158 83.9667C78.6771 83.3866 77.0774 83.5005 75.726 84.2793L72.0513 86.3957C70.6969 87.1758 69.7957 88.5056 69.5786 90.0437V90.044C69.4547 90.9229 69.1521 92.3136 68.7261 93.9604C68.6517 94.2484 68.3933 94.45 68.0977 94.45H64.1206C63.825 94.45 63.5666 94.2484 63.4919 93.9601C63.0662 92.3136 62.7636 90.9229 62.6396 90.0437C62.4226 88.5056 61.5214 87.1758 60.167 86.3957L56.4926 84.2793C55.7104 83.8287 54.8455 83.6007 53.9769 83.6007C53.3438 83.6007 52.7089 83.722 52.103 83.9664C51.2774 84.2992 49.9137 84.7345 48.264 85.1924C47.9771 85.2727 47.6742 85.1494 47.5266 84.8942L45.5408 81.4629C45.394 81.2095 45.4389 80.8881 45.6501 80.6816C46.8691 79.488 47.9268 78.5297 48.6278 77.9834C49.8533 77.0286 50.5559 75.5845 50.5559 74.0212V69.7937C50.5559 68.2301 49.853 66.7858 48.6275 65.8316C47.9265 65.2855 46.8691 64.3272 45.6501 63.1337C45.4389 62.9271 45.394 62.6057 45.5408 62.3523L47.5266 58.9211C47.6745 58.6659 47.9792 58.544 48.2634 58.6225C49.914 59.0804 51.2774 59.5161 52.1024 59.8486C53.54 60.4284 55.1396 60.3147 56.4923 59.536L60.1667 57.4196C61.5211 56.6397 62.4226 55.3102 62.6396 53.7713C62.7636 52.8923 63.0662 51.5016 63.4922 49.8549C63.5657 49.5698 63.8197 49.3703 64.1112 49.3662L68.1044 49.3659C68.3977 49.3691 68.6525 49.5689 68.7267 49.8551ZM80.1073 25.0477C79.8961 24.8412 79.8513 24.5198 79.998 24.2664L81.9838 20.8351C82.1314 20.58 82.4358 20.4581 82.7206 20.5366C84.3738 20.9951 85.737 21.4307 86.5597 21.7627C87.9973 22.3427 89.5972 22.2288 90.9495 21.4501L94.6239 19.3337C95.9783 18.5538 96.8798 17.2243 97.0969 15.6853C97.2208 14.8058 97.5234 13.4151 97.9494 11.7689C98.0238 11.4809 98.2822 11.2794 98.5778 11.2794H102.555C102.85 11.2794 103.109 11.4809 103.184 11.7692C103.609 13.4151 103.912 14.8058 104.036 15.6856C104.253 17.2243 105.154 18.5538 106.508 19.3334L110.184 21.4504C111.536 22.2288 113.135 22.343 114.573 21.7627C115.396 21.4304 116.76 20.9954 118.412 20.5369C118.697 20.4569 119.001 20.5797 119.149 20.8351L121.135 24.2664C121.281 24.5198 121.237 24.8412 121.025 25.0477C119.807 26.241 118.749 27.1996 118.049 27.7451C116.823 28.6999 116.12 30.1439 116.12 31.7078V35.9353C116.12 37.4989 116.822 38.9432 118.048 39.8977C118.749 40.4438 119.807 41.4024 121.025 42.5957C121.237 42.8022 121.281 43.1236 121.135 43.377L119.149 46.8083C119.001 47.0634 118.697 47.1853 118.412 47.1068C116.762 46.6489 115.398 46.2133 114.573 45.8807C113.136 45.3009 111.535 45.4143 110.183 46.1933L106.508 48.3097C105.154 49.0899 104.253 50.4197 104.036 51.9578V51.9581C103.912 52.837 103.609 54.2277 103.183 55.8745C103.109 56.1625 102.85 56.364 102.555 56.364H98.5778C98.2822 56.364 98.0238 56.1625 97.9491 55.8742C97.5234 54.2277 97.2208 52.837 97.0969 51.9578C96.8798 50.4197 95.9786 49.0899 94.6242 48.3097L90.9498 46.1933C90.1676 45.7427 89.3027 45.5148 88.4341 45.5148C87.801 45.5148 87.1661 45.6361 86.5603 45.8804C85.7358 46.213 84.3721 46.6483 82.7212 47.1065C82.435 47.1865 82.1314 47.0637 81.9838 46.8083L81.5947 46.1359C81.5824 46.1128 81.5687 46.0908 81.5558 46.0685L79.998 43.377C79.8513 43.1236 79.8961 42.8022 80.1073 42.5957C81.3255 41.403 82.3831 40.4447 83.0851 39.8974C84.3105 38.9426 85.0131 37.4986 85.0131 35.9353V31.7078C85.0131 30.1442 84.3102 28.6999 83.0851 27.7457C82.3828 27.1987 81.3255 26.2404 80.1073 25.0477ZM86.2793 129.785C86.2793 130.512 85.6878 131.104 84.9609 131.104H65.0391C64.3122 131.104 63.7207 130.512 63.7207 129.785V128.467H86.2793V129.785Z" fill="#434546"/>
<path d="M100.567 45.787C107.177 45.787 112.556 40.4195 112.556 33.8216C112.556 27.2239 107.178 21.8564 100.567 21.8564C93.9554 21.8564 88.5771 27.2239 88.5771 33.8216C88.5771 40.4195 93.9554 45.787 100.567 45.787ZM97.1426 40.5763H103.99C102.961 41.0969 101.798 41.3925 100.567 41.3925C99.3352 41.3925 98.1721 41.0969 97.1426 40.5763ZM100.567 26.2513C104.755 26.2513 108.161 29.6474 108.161 33.8219C108.161 34.646 108.027 35.4388 107.781 36.182H93.3516C93.1064 35.4388 92.9716 34.646 92.9716 33.8219C92.9716 29.6471 96.3785 26.2513 100.567 26.2513Z" fill="#434546"/>
<path d="M54.1201 71.9075C54.1201 78.5055 59.4984 83.873 66.1096 83.873C72.7207 83.873 78.099 78.5055 78.099 71.9075C78.099 65.3099 72.7207 59.9424 66.1096 59.9424C59.4984 59.9424 54.1201 65.3102 54.1201 71.9075ZM73.7045 71.9075C73.7045 76.082 70.2976 79.4784 66.1096 79.4784C61.9216 79.4784 58.5146 76.082 58.5146 71.9075C58.5146 67.733 61.9216 64.3369 66.1096 64.3369C70.2976 64.3369 73.7045 67.733 73.7045 71.9075Z" fill="#434546"/>
</g>
<defs>
<clipPath id="clip0">
<rect width="150" height="150" fill="white"/>
</clipPath>
</defs>
</svg>
