<svg width="150" height="150" viewBox="0 0 150 150" fill="none" xmlns="http://www.w3.org/2000/svg">
<g clip-path="url(#clip0)">
<path d="M127.916 123.343H123.015C121.802 123.343 120.818 124.326 120.818 125.54C120.818 126.754 121.802 127.737 123.015 127.737H127.916C129.13 127.737 130.113 126.754 130.113 125.54C130.113 124.326 129.13 123.343 127.916 123.343Z" fill="#434546"/>
<path d="M74.833 40.7812C65.4312 40.7812 56.5918 44.4426 49.9438 51.0907C49.0857 51.949 49.0857 53.34 49.9438 54.1981C50.8024 55.0561 52.1931 55.0558 53.0511 54.1981C58.869 48.3797 66.6048 45.1753 74.833 45.1753C83.0613 45.1753 90.7968 48.3797 96.6152 54.1981C97.4736 55.0558 98.8645 55.0558 99.7226 54.1981C100.581 53.3397 100.581 51.9487 99.7226 51.0907C93.0742 44.4426 84.2352 40.7812 74.833 40.7812V40.7812Z" fill="#434546"/>
<path d="M92.2302 61.6907C93.0883 60.8324 93.0883 59.4414 92.2302 58.5833C82.6371 48.9908 67.0293 48.9908 57.4358 58.5833C56.5777 59.4417 56.5777 60.8326 57.4358 61.6907C58.2942 62.5485 59.6851 62.5485 60.5432 61.6907C68.4223 53.8114 81.2435 53.8114 89.1225 61.6907C89.9812 62.5485 91.3718 62.5482 92.2302 61.6907V61.6907Z" fill="#434546"/>
<path d="M64.9284 66.0751C64.0704 66.9335 64.0704 68.3244 64.9284 69.1825C65.7868 70.0403 67.1778 70.0403 68.0358 69.1825C71.7836 65.4341 77.8824 65.4341 81.6302 69.1825C82.4888 70.0405 83.8795 70.0403 84.7376 69.1825C85.5956 68.3241 85.5956 66.9332 84.7376 66.0751C79.2763 60.6138 70.3897 60.6138 64.9284 66.0751Z" fill="#434546"/>
<path d="M92.8056 92.7083C94.0193 92.7083 95.0028 91.7248 95.0028 90.5111C95.0028 89.2974 94.0193 88.314 92.8056 88.314H24.4015V29.3217H125.592V50.4655C125.592 51.6792 126.576 52.6627 127.789 52.6627C129.003 52.6627 129.986 51.6792 129.986 50.4655V29.1348C129.986 26.8148 128.099 24.9276 125.779 24.9276H24.2143C21.8944 24.9276 20.0071 26.8148 20.0071 29.1348V88.5011C20.0071 90.8211 21.8944 92.7083 24.2143 92.7083H92.8056Z" fill="#434546"/>
<path d="M143.234 58.5561H140.3V24.4273C140.3 19.0158 135.898 14.6135 130.486 14.6135H19.5071C14.0956 14.6135 9.69333 19.0158 9.69333 24.4273V98.6275H5.83744C2.61844 98.6278 0 101.246 0 104.465C0 113.386 7.25799 120.644 16.1797 120.644H100.931V128.621C100.931 132.351 103.966 135.387 107.697 135.387H143.235C146.965 135.387 150.001 132.352 150.001 128.621V65.3222C150 61.5914 146.965 58.5561 143.234 58.5561V58.5561ZM14.0877 24.4273C14.0877 21.4391 16.5189 19.0079 19.5071 19.0079H130.486C133.475 19.0079 135.906 21.4391 135.906 24.4273V58.5561H107.697C103.966 58.5561 100.93 61.5911 100.93 65.3222V98.6278C97.5863 98.6278 18.3894 98.6278 14.0874 98.6278V24.4273H14.0877ZM53.816 103.022H90.9043V105.23C90.9043 106.448 89.9135 107.439 88.6957 107.439H56.0246C54.8068 107.439 53.816 106.448 53.816 105.23V103.022ZM16.1797 116.25C9.68132 116.25 4.39434 110.963 4.39434 104.465C4.39434 103.669 5.04178 103.022 5.83744 103.022H49.4217V105.23C49.4217 108.871 52.3838 111.833 56.0246 111.833H88.6954C92.3363 111.833 95.2983 108.871 95.2983 105.23V103.022H100.93V116.25H16.1797V116.25ZM145.606 128.62C145.606 129.928 144.542 130.992 143.234 130.992H107.697C106.389 130.992 105.325 129.928 105.325 128.62V65.3222C105.325 64.0144 106.389 62.9504 107.697 62.9504H143.234C144.542 62.9504 145.606 64.0144 145.606 65.3222V128.62H145.606Z" fill="#434546"/>
<path d="M138.028 66.5909H112.903C110.732 66.5909 108.966 68.3572 108.966 70.5283V116.031C108.966 118.203 110.732 119.969 112.903 119.969H138.028C140.199 119.969 141.965 118.203 141.965 116.031V70.5286C141.965 68.3572 140.199 66.5909 138.028 66.5909V66.5909ZM137.571 115.575H113.36V70.9853H137.571V115.575Z" fill="#434546"/>
</g>
<defs>
<clipPath id="clip0">
<rect width="150" height="150" fill="white"/>
</clipPath>
</defs>
</svg>
