<svg width="512" height="512" viewBox="0 0 512 512" fill="none" xmlns="http://www.w3.org/2000/svg">
<path d="M346.562 318.616C345.288 318.615 344.04 318.262 342.954 317.597C341.868 316.932 340.987 315.98 340.408 314.846C339.828 313.712 339.573 312.44 339.67 311.17C339.767 309.901 340.212 308.682 340.957 307.65L366.211 272.64C367.291 271.167 368.909 270.18 370.712 269.895C372.516 269.61 374.36 270.049 375.841 271.117C377.322 272.186 378.32 273.796 378.619 275.598C378.917 277.4 378.491 279.246 377.434 280.735L352.18 315.745C351.538 316.635 350.694 317.359 349.717 317.858C348.74 318.357 347.659 318.617 346.562 318.616Z" fill="#F9F9F9"/>
<path d="M164.525 407.87C163.093 407.87 161.696 407.425 160.528 406.597C159.359 405.769 158.476 404.599 158 403.248L107.838 260.394L16.903 199.41C15.755 198.642 14.8633 197.547 14.3429 196.267C13.8225 194.987 13.6971 193.581 13.9829 192.229C14.2687 190.878 14.9527 189.643 15.9466 188.683C16.9405 187.724 18.199 187.084 19.5598 186.845L490.046 104.234C491.401 103.995 492.797 104.166 494.054 104.724C495.312 105.283 496.374 106.204 497.106 107.369C497.837 108.534 498.205 109.891 498.161 111.266C498.118 112.642 497.665 113.973 496.861 115.089L443.171 189.578C442.64 190.316 441.968 190.941 441.196 191.419C440.423 191.897 439.563 192.218 438.667 192.364C436.855 192.659 435.001 192.222 433.512 191.149C432.023 190.076 431.021 188.456 430.726 186.645C430.432 184.834 430.869 182.979 431.941 181.49L475.683 120.777L38.9051 197.501L117.463 250.188C118.703 251.022 119.64 252.236 120.133 253.648L157.814 360.946L158.167 290.982C158.173 289.736 158.516 288.515 159.159 287.448C159.802 286.38 160.721 285.506 161.819 284.918C162.918 284.33 164.154 284.049 165.399 284.106C166.644 284.162 167.85 284.554 168.891 285.239L296.538 369.318L320.754 335.741C321.283 334.996 321.953 334.364 322.728 333.88C323.502 333.396 324.364 333.07 325.264 332.921C326.165 332.772 327.086 332.802 327.975 333.011C328.864 333.219 329.703 333.601 330.443 334.136C331.183 334.67 331.811 335.345 332.289 336.122C332.767 336.9 333.087 337.765 333.229 338.666C333.372 339.568 333.335 340.489 333.12 341.376C332.905 342.263 332.516 343.099 331.977 343.836L303.886 382.789C302.842 384.236 301.28 385.224 299.525 385.546C297.77 385.868 295.959 385.5 294.469 384.519L171.942 303.81L171.451 400.986C171.444 402.618 170.86 404.195 169.803 405.438C168.746 406.682 167.283 407.511 165.674 407.78C165.294 407.841 164.91 407.871 164.525 407.87V407.87Z" fill="#F9F9F9"/>
<path d="M392.088 255.516C390.815 255.515 389.568 255.163 388.482 254.498C387.396 253.834 386.515 252.883 385.935 251.75C385.355 250.617 385.098 249.346 385.194 248.077C385.29 246.808 385.734 245.589 386.477 244.556L411.662 209.546C412.734 208.056 414.353 207.053 416.165 206.757C417.976 206.461 419.831 206.897 421.321 207.969C422.811 209.041 423.814 210.66 424.11 212.472C424.406 214.283 423.97 216.138 422.898 217.628L397.713 252.637C397.072 253.529 396.227 254.256 395.249 254.756C394.27 255.257 393.187 255.517 392.088 255.516Z" fill="#F9F9F9"/>
<path d="M165.113 297.949C163.579 297.949 162.089 297.439 160.876 296.5C159.664 295.561 158.798 294.245 158.415 292.76C158.031 291.275 158.152 289.704 158.759 288.295C159.365 286.886 160.422 285.719 161.764 284.976L400.19 153.406L116.065 262.414C115.215 262.747 114.308 262.91 113.395 262.891C112.482 262.872 111.582 262.673 110.747 262.305C109.911 261.937 109.157 261.407 108.527 260.746C107.897 260.085 107.405 259.306 107.077 258.454C106.75 257.602 106.595 256.693 106.62 255.781C106.646 254.868 106.851 253.969 107.226 253.137C107.6 252.304 108.135 251.554 108.801 250.929C109.467 250.304 110.249 249.817 111.104 249.496L488.766 104.607C490.401 103.984 492.212 104.004 493.833 104.662C495.454 105.321 496.766 106.569 497.503 108.156C498.241 109.743 498.35 111.55 497.809 113.214C497.267 114.878 496.115 116.275 494.585 117.123L168.448 297.091C167.426 297.654 166.279 297.949 165.113 297.949V297.949Z" fill="#F9F9F9"/>
<path d="M164.566 407.843C163.139 407.845 161.746 407.406 160.578 406.585C159.41 405.765 158.525 404.603 158.043 403.26C157.561 401.916 157.506 400.457 157.886 399.081C158.267 397.705 159.063 396.481 160.166 395.575L234.621 334.364C235.322 333.786 236.131 333.353 237.001 333.088C237.87 332.823 238.783 332.732 239.688 332.82C240.592 332.908 241.471 333.173 242.273 333.601C243.075 334.028 243.785 334.61 244.362 335.312C244.94 336.013 245.373 336.822 245.638 337.692C245.903 338.561 245.994 339.474 245.906 340.379C245.818 341.283 245.553 342.162 245.125 342.964C244.698 343.766 244.116 344.476 243.414 345.053L168.953 406.265C167.717 407.282 166.167 407.84 164.566 407.843V407.843Z" fill="#F9F9F9"/>
</svg>
