<svg width="150" height="150" viewBox="0 0 150 150" fill="none" xmlns="http://www.w3.org/2000/svg">
<g clip-path="url(#clip0)">
<path d="M148.975 65.5077L57.5684 12.737C54.9438 11.2269 51.8276 10.8189 48.9027 11.6024C45.9779 12.386 43.483 14.2972 41.9648 16.9171L31.4414 35.1433L24.4359 47.2757C22.9249 49.9012 22.5168 53.0187 23.3011 55.9447C24.0853 58.8706 25.998 61.3661 28.6195 62.8839L59.959 80.9765L55.0852 89.2874C54.4369 90.3875 53.5133 91.2998 52.4053 91.9345C51.2974 92.5692 50.0433 92.9045 48.7664 92.9073H30.4688V78.962C30.4688 78.4181 30.2527 77.8965 29.8681 77.5119C29.4835 77.1273 28.9619 76.9112 28.418 76.9112H17.2852V74.2652C17.2824 71.8573 16.3246 69.5489 14.622 67.8463C12.9194 66.1437 10.611 65.1859 8.20313 65.1831H2.05078C1.78143 65.183 1.51468 65.2359 1.2658 65.3389C1.01692 65.4419 0.79078 65.593 0.600317 65.7834C0.409853 65.9739 0.2588 66.2 0.155793 66.4489C0.0527862 66.6978 -0.000153714 66.9646 3.35235e-07 67.2339V136.746C-0.000153714 137.015 0.0527862 137.282 0.155793 137.531C0.2588 137.78 0.409853 138.006 0.600317 138.196C0.79078 138.387 1.01692 138.538 1.2658 138.641C1.51468 138.744 1.78143 138.797 2.05078 138.797H8.20313C10.611 138.794 12.9194 137.836 14.622 136.134C16.3246 134.431 17.2824 132.123 17.2852 129.715V123.2H28.418C28.9619 123.2 29.4835 122.984 29.8681 122.6C30.2527 122.215 30.4688 121.693 30.4688 121.15V111.071H48.7664C53.209 111.062 57.5726 109.896 61.4278 107.688C65.283 105.48 68.4968 102.307 70.7531 98.4796L75.6902 90.0609L92.8688 99.9784C94.5983 100.982 96.5621 101.512 98.5617 101.514C99.5669 101.513 100.568 101.381 101.538 101.12C103.404 100.624 105.112 99.6601 106.501 98.3202C108.748 99.3627 111.195 99.9041 113.672 99.907C115.19 99.9059 116.701 99.7058 118.167 99.3116C121.906 98.3179 125.199 96.0875 127.508 92.9835L131.708 95.4081C131.941 95.543 132.199 95.6306 132.466 95.6658C132.733 95.701 133.005 95.6833 133.265 95.6135C133.525 95.5437 133.769 95.4233 133.983 95.2592C134.196 95.0951 134.376 94.8904 134.51 94.657L149.721 68.312C149.856 68.0789 149.944 67.8214 149.98 67.5543C150.015 67.2872 149.998 67.0157 149.929 66.7553C149.859 66.4949 149.739 66.2507 149.576 66.0366C149.412 65.8226 149.208 65.6429 148.975 65.5077V65.5077ZM13.1836 129.715C13.1824 131.035 12.6572 132.301 11.7235 133.235C10.7897 134.169 9.52365 134.694 8.20313 134.695H4.10156V69.2847H8.20313C9.52365 69.2859 10.7897 69.8111 11.7235 70.7448C12.6572 71.6786 13.1824 72.9446 13.1836 74.2652V129.715ZM26.3672 119.099H17.2852V81.0128H26.3672V119.099ZM67.2141 96.4042C65.3213 99.6157 62.6249 102.279 59.3902 104.132C56.1555 105.985 52.4941 106.963 48.7664 106.971H30.4688V97.0101H48.7664C50.7581 97.0057 52.7144 96.4828 54.4427 95.4928C56.171 94.5028 57.6117 93.0799 58.623 91.364L63.5156 83.0296L72.143 88.0101L67.2141 96.4042ZM94.9219 96.4265L30.6703 59.332C28.9895 58.3592 27.7633 56.7595 27.2606 54.8837C26.758 53.0079 27.0199 51.0093 27.9891 49.3265L33.9656 38.9706L92.8488 72.9667L110.902 83.3894L104.924 93.7499L104.916 93.7628C104.76 94.0274 104.587 94.2819 104.399 94.5245V94.5327C103.317 95.9438 101.76 96.9139 100.017 97.2622C98.2732 97.6106 96.4626 97.3136 94.9219 96.4265V96.4265ZM117.114 95.3495C114.427 96.0758 111.58 95.926 108.984 94.9218L114.461 85.4378L123.945 90.9128C122.198 93.0819 119.804 94.6363 117.111 95.3495H117.114ZM131.991 90.8261L118.729 83.1691L114.727 80.8593L69.4488 54.7195L36.0188 35.4187L45.5168 18.9679C46.4899 17.2875 48.0899 16.0618 49.9656 15.5596C51.8413 15.0573 53.8397 15.3197 55.5223 16.289L145.147 68.0355L131.991 90.8261Z" fill="#434546"/>
<path d="M123.227 79.6793C124.422 80.373 125.778 80.7389 127.159 80.7398C127.852 80.7392 128.543 80.6478 129.212 80.468C130.975 79.9959 132.519 78.9273 133.582 77.4443C134.645 75.9613 135.161 74.1556 135.042 72.3348C134.922 70.5141 134.176 68.791 132.929 67.4591C131.681 66.1273 130.011 65.269 128.202 65.0306C126.393 64.7922 124.557 65.1885 123.008 66.1518C121.458 67.1151 120.291 68.5859 119.704 70.3136C119.117 72.0414 119.148 73.9191 119.79 75.6268C120.433 77.3346 121.647 78.7667 123.227 79.6793V79.6793ZM123.894 70.957C124.142 70.5269 124.473 70.1501 124.867 69.8484C125.262 69.5467 125.712 69.3261 126.192 69.1992C126.513 69.1133 126.844 69.0695 127.177 69.0691C128.011 69.0692 128.821 69.3445 129.483 69.8524C130.144 70.3602 130.62 71.0721 130.836 71.8777C131.052 72.6834 130.995 73.5377 130.676 74.3082C130.357 75.0787 129.792 75.7223 129.07 76.1392C128.348 76.5561 127.508 76.723 126.681 76.614C125.854 76.505 125.086 76.1262 124.497 75.5363C123.907 74.9465 123.528 74.1786 123.42 73.3517C123.311 72.5248 123.478 71.6851 123.895 70.9629L123.894 70.957Z" fill="#434546"/>
<path d="M53.3203 58.9101L36.5156 49.2058C36.2823 49.069 36.0242 48.9797 35.7563 48.9431C35.4883 48.9065 35.2157 48.9232 34.9543 48.9923C34.6928 49.0614 34.4476 49.1816 34.2327 49.3459C34.0179 49.5102 33.8377 49.7153 33.7024 49.9496C33.5672 50.1838 33.4796 50.4424 33.4448 50.7106C33.4099 50.9788 33.4284 51.2513 33.4993 51.5123C33.5702 51.7733 33.692 52.0177 33.8577 52.2315C34.0234 52.4452 34.2297 52.6241 34.4648 52.7578L51.2742 62.4609C51.7433 62.7061 52.2891 62.7605 52.7973 62.6126C53.3056 62.4648 53.737 62.1261 54.0013 61.6674C54.2656 61.2088 54.3423 60.6657 54.2154 60.1518C54.0885 59.6379 53.7677 59.193 53.3203 58.9101V58.9101Z" fill="#434546"/>
</g>
<defs>
<clipPath id="clip0">
<rect width="150" height="150" fill="white"/>
</clipPath>
</defs>
</svg>
