<svg width="150" height="150" viewBox="0 0 150 150" fill="none" xmlns="http://www.w3.org/2000/svg">
<g clip-path="url(#clip0)">
<path d="M79.7068 150H70.2929C62.6789 150 56.4841 143.805 56.4841 136.191V133.007C53.2471 131.972 50.1021 130.667 47.0807 129.103L44.8236 131.36C39.3571 136.834 30.6006 136.673 25.2929 131.358L18.6393 124.705C13.3222 119.394 13.1692 110.64 18.641 105.174L20.8963 102.919C19.3327 99.8977 18.0275 96.7532 16.9931 93.5156H13.8085C6.19482 93.5156 0 87.3211 0 79.7071V70.2929C0 62.6789 6.19482 56.4844 13.8088 56.4844H16.9934C18.0278 53.2471 19.333 50.1023 20.8966 47.081L18.6396 44.8242C13.171 39.3615 13.3219 30.607 18.6413 25.2935L25.2955 18.6396C30.6155 13.3122 39.37 13.1792 44.826 18.6413L47.081 20.8963C50.1023 19.333 53.2474 18.0275 56.4844 16.9931V13.8085C56.4844 6.19453 62.6789 0 70.2932 0H79.7071C87.3211 0 93.5156 6.19453 93.5156 13.8085V16.9934C96.7526 18.0275 99.8977 19.333 102.919 20.8966L105.176 18.6396C110.643 13.1663 119.399 13.3269 124.707 18.6416L131.36 25.2949C136.678 30.6062 136.83 39.3598 131.359 44.8257L129.103 47.081C130.667 50.1023 131.972 53.2468 133.007 56.4844H136.191C143.805 56.4844 150 62.6789 150 70.2929V79.7071C150 87.3211 143.805 93.5156 136.191 93.5156H133.007C131.972 96.7529 130.667 99.8977 129.103 102.919L131.36 105.176C136.829 110.639 136.678 119.393 131.359 124.707L124.704 131.361C119.384 136.688 110.63 136.821 105.174 131.359L102.919 129.104C99.8977 130.667 96.7526 131.973 93.5156 133.007V136.192C93.5156 143.805 87.3211 150 79.7068 150ZM48.5499 119.874C52.7473 122.356 57.2648 124.232 61.977 125.448C63.9176 125.948 65.2734 127.699 65.2734 129.703V136.191C65.2734 138.959 67.5255 141.211 70.2932 141.211H79.7071C82.4748 141.211 84.7269 138.959 84.7269 136.191V129.703C84.7269 127.699 86.0827 125.948 88.0233 125.448C92.7355 124.232 97.253 122.356 101.45 119.874C103.177 118.853 105.376 119.13 106.795 120.549L111.391 125.146C113.373 127.13 116.555 127.084 118.488 125.148L125.146 118.49C127.075 116.564 127.139 113.381 125.148 111.393L120.55 106.794C119.131 105.376 118.854 103.177 119.875 101.45C122.357 97.253 124.232 92.7355 125.448 88.023C125.949 86.0824 127.699 84.7269 129.703 84.7269H136.191C138.959 84.7269 141.211 82.4751 141.211 79.7074V70.2932C141.211 67.5255 138.959 65.2737 136.191 65.2737H129.703C127.699 65.2737 125.949 63.9179 125.448 61.9775C124.232 57.2651 122.357 52.7476 119.875 48.5505C118.854 46.8237 119.131 44.6247 120.55 43.2062L125.146 38.6098C127.133 36.6252 127.081 33.4436 125.148 31.5126L118.49 24.8549C116.561 22.9225 113.378 22.8659 111.393 24.8531L106.795 29.4513C105.377 30.8701 103.177 31.1479 101.451 30.1266C97.2533 27.6442 92.7357 25.7689 88.0236 24.5528C86.083 24.0521 84.7271 22.302 84.7271 20.2978V13.8085C84.7271 11.0408 82.4751 8.78906 79.7074 8.78906H70.2935C67.5258 8.78906 65.2737 11.0408 65.2737 13.8085V20.2972C65.2737 22.3014 63.9179 24.0516 61.9772 24.5522C57.2651 25.7684 52.7476 27.6437 48.5502 30.126C46.8229 31.147 44.6241 30.8692 43.2056 29.4507L38.6095 24.8543C36.6278 22.8703 33.4453 22.9163 31.5126 24.8522L24.8543 31.5103C22.926 33.4362 22.8615 36.6187 24.8525 38.6074L29.4507 43.2056C30.8692 44.6241 31.147 46.8231 30.126 48.5499C27.6437 52.747 25.7687 57.2646 24.5525 61.977C24.0516 63.9176 22.3014 65.2731 20.2975 65.2731H13.8088C11.0411 65.2734 8.78906 67.5252 8.78906 70.2929V79.7071C8.78906 82.4748 11.0411 84.7266 13.8088 84.7266H20.2972C22.3014 84.7266 24.0513 86.0824 24.5522 88.0228C25.7684 92.7352 27.6437 97.2527 30.1257 101.45C31.1467 103.177 30.8689 105.376 29.4504 106.794L24.854 111.391C22.8671 113.375 22.9189 116.557 24.8522 118.488L31.51 125.145C33.4397 127.078 36.6226 127.134 38.6071 125.147L43.205 120.549C44.2503 119.504 46.425 118.617 48.5499 119.874Z" fill="#434546"/>
<path d="M75 107.637C57.0038 107.637 42.3633 92.9959 42.3633 75C42.3633 57.0041 57.0038 42.3633 75 42.3633C92.9962 42.3633 107.637 57.0041 107.637 75C107.637 92.9959 92.9962 107.637 75 107.637ZM75 51.1523C61.8501 51.1523 51.1523 61.8504 51.1523 75C51.1523 88.1496 61.8504 98.8477 75 98.8477C88.1496 98.8477 98.8477 88.1496 98.8477 75C98.8477 61.8504 88.1499 51.1523 75 51.1523Z" fill="#434546"/>
</g>
<defs>
<clipPath id="clip0">
<rect width="150" height="150" fill="white"/>
</clipPath>
</defs>
</svg>
